<mxfile host="app.diagrams.net" modified="2022-10-05T02:42:43.243Z" agent="5.0 (Windows NT 10.0; Win64; x64) AppleWebKit/537.36 (KHTML, like Gecko) Chrome/105.0.0.0 Safari/537.36" etag="zt-fvxOHLtJnh_HFVHCN" version="20.3.0" type="github">
  <diagram id="R2lEEEUBdFMjLlhIrx00" name="Page-1">
    <mxGraphModel dx="2738" dy="547" grid="1" gridSize="10" guides="1" tooltips="1" connect="1" arrows="1" fold="1" page="1" pageScale="1" pageWidth="850" pageHeight="1100" math="0" shadow="0" extFonts="Permanent Marker^https://fonts.googleapis.com/css?family=Permanent+Marker">
      <root>
        <mxCell id="0" />
        <mxCell id="1" parent="0" />
        <mxCell id="0v3SI8ZKZs6dKQrGf3tf-1" value="Student" style="rounded=0;whiteSpace=wrap;html=1;" vertex="1" parent="1">
          <mxGeometry x="390" y="190" width="120" height="60" as="geometry" />
        </mxCell>
        <mxCell id="0v3SI8ZKZs6dKQrGf3tf-2" value="" style="endArrow=none;html=1;rounded=0;entryX=0;entryY=0;entryDx=0;entryDy=0;" edge="1" parent="1" target="0v3SI8ZKZs6dKQrGf3tf-1">
          <mxGeometry width="50" height="50" relative="1" as="geometry">
            <mxPoint x="350" y="160" as="sourcePoint" />
            <mxPoint x="390" y="180" as="targetPoint" />
          </mxGeometry>
        </mxCell>
        <mxCell id="0v3SI8ZKZs6dKQrGf3tf-3" value="&lt;b&gt;student_id&lt;/b&gt;" style="ellipse;whiteSpace=wrap;html=1;aspect=fixed;" vertex="1" parent="1">
          <mxGeometry x="280" y="100" width="80" height="80" as="geometry" />
        </mxCell>
        <mxCell id="0v3SI8ZKZs6dKQrGf3tf-4" value="" style="endArrow=none;html=1;rounded=0;exitX=0.25;exitY=0;exitDx=0;exitDy=0;" edge="1" parent="1" source="0v3SI8ZKZs6dKQrGf3tf-1" target="0v3SI8ZKZs6dKQrGf3tf-5">
          <mxGeometry width="50" height="50" relative="1" as="geometry">
            <mxPoint x="420" y="200" as="sourcePoint" />
            <mxPoint x="440" y="120" as="targetPoint" />
          </mxGeometry>
        </mxCell>
        <mxCell id="0v3SI8ZKZs6dKQrGf3tf-5" value="username" style="ellipse;whiteSpace=wrap;html=1;aspect=fixed;" vertex="1" parent="1">
          <mxGeometry x="360" y="70" width="80" height="80" as="geometry" />
        </mxCell>
        <mxCell id="0v3SI8ZKZs6dKQrGf3tf-6" value="" style="endArrow=none;html=1;rounded=0;exitX=0.5;exitY=0;exitDx=0;exitDy=0;" edge="1" parent="1" source="0v3SI8ZKZs6dKQrGf3tf-1" target="0v3SI8ZKZs6dKQrGf3tf-7">
          <mxGeometry width="50" height="50" relative="1" as="geometry">
            <mxPoint x="600" y="310" as="sourcePoint" />
            <mxPoint x="520" y="120" as="targetPoint" />
          </mxGeometry>
        </mxCell>
        <mxCell id="0v3SI8ZKZs6dKQrGf3tf-7" value="school" style="ellipse;whiteSpace=wrap;html=1;aspect=fixed;" vertex="1" parent="1">
          <mxGeometry x="450" y="70" width="80" height="80" as="geometry" />
        </mxCell>
        <mxCell id="0v3SI8ZKZs6dKQrGf3tf-8" value="" style="endArrow=none;html=1;rounded=0;exitX=1;exitY=0;exitDx=0;exitDy=0;" edge="1" parent="1" source="0v3SI8ZKZs6dKQrGf3tf-1" target="0v3SI8ZKZs6dKQrGf3tf-10">
          <mxGeometry width="50" height="50" relative="1" as="geometry">
            <mxPoint x="600" y="310" as="sourcePoint" />
            <mxPoint x="560" y="150" as="targetPoint" />
          </mxGeometry>
        </mxCell>
        <mxCell id="0v3SI8ZKZs6dKQrGf3tf-10" value="picture" style="ellipse;whiteSpace=wrap;html=1;aspect=fixed;" vertex="1" parent="1">
          <mxGeometry x="530" y="105" width="70" height="70" as="geometry" />
        </mxCell>
        <mxCell id="0v3SI8ZKZs6dKQrGf3tf-11" value="" style="endArrow=none;html=1;rounded=0;entryX=0;entryY=1;entryDx=0;entryDy=0;exitX=0;exitY=0;exitDx=0;exitDy=0;" edge="1" parent="1" source="0v3SI8ZKZs6dKQrGf3tf-12" target="0v3SI8ZKZs6dKQrGf3tf-1">
          <mxGeometry width="50" height="50" relative="1" as="geometry">
            <mxPoint x="330" y="290" as="sourcePoint" />
            <mxPoint x="650" y="260" as="targetPoint" />
          </mxGeometry>
        </mxCell>
        <mxCell id="0v3SI8ZKZs6dKQrGf3tf-12" value="description" style="ellipse;whiteSpace=wrap;html=1;aspect=fixed;direction=south;" vertex="1" parent="1">
          <mxGeometry x="290" y="280" width="80" height="80" as="geometry" />
        </mxCell>
        <mxCell id="0v3SI8ZKZs6dKQrGf3tf-13" value="" style="endArrow=none;html=1;rounded=0;entryX=0.25;entryY=1;entryDx=0;entryDy=0;" edge="1" parent="1" target="0v3SI8ZKZs6dKQrGf3tf-1">
          <mxGeometry width="50" height="50" relative="1" as="geometry">
            <mxPoint x="400" y="330" as="sourcePoint" />
            <mxPoint x="650" y="260" as="targetPoint" />
          </mxGeometry>
        </mxCell>
        <mxCell id="0v3SI8ZKZs6dKQrGf3tf-15" value="location&amp;nbsp;" style="ellipse;whiteSpace=wrap;html=1;aspect=fixed;" vertex="1" parent="1">
          <mxGeometry x="360" y="320" width="80" height="80" as="geometry" />
        </mxCell>
        <mxCell id="0v3SI8ZKZs6dKQrGf3tf-16" value="" style="endArrow=none;html=1;rounded=0;entryX=0.653;entryY=1.017;entryDx=0;entryDy=0;entryPerimeter=0;" edge="1" parent="1" target="0v3SI8ZKZs6dKQrGf3tf-1">
          <mxGeometry width="50" height="50" relative="1" as="geometry">
            <mxPoint x="490" y="320" as="sourcePoint" />
            <mxPoint x="420" y="280" as="targetPoint" />
          </mxGeometry>
        </mxCell>
        <mxCell id="0v3SI8ZKZs6dKQrGf3tf-17" value="email" style="ellipse;whiteSpace=wrap;html=1;aspect=fixed;" vertex="1" parent="1">
          <mxGeometry x="460" y="310" width="70" height="70" as="geometry" />
        </mxCell>
        <mxCell id="0v3SI8ZKZs6dKQrGf3tf-18" value="" style="endArrow=none;html=1;rounded=0;entryX=1;entryY=1;entryDx=0;entryDy=0;" edge="1" parent="1" target="0v3SI8ZKZs6dKQrGf3tf-1">
          <mxGeometry width="50" height="50" relative="1" as="geometry">
            <mxPoint x="560" y="300" as="sourcePoint" />
            <mxPoint x="420" y="280" as="targetPoint" />
          </mxGeometry>
        </mxCell>
        <mxCell id="0v3SI8ZKZs6dKQrGf3tf-19" value="password" style="ellipse;whiteSpace=wrap;html=1;aspect=fixed;" vertex="1" parent="1">
          <mxGeometry x="540" y="290" width="80" height="80" as="geometry" />
        </mxCell>
        <mxCell id="0v3SI8ZKZs6dKQrGf3tf-23" value="" style="endArrow=none;html=1;rounded=0;entryX=0.5;entryY=0;entryDx=0;entryDy=0;" edge="1" parent="1">
          <mxGeometry width="50" height="50" relative="1" as="geometry">
            <mxPoint x="770" y="120" as="sourcePoint" />
            <mxPoint x="770" y="190" as="targetPoint" />
          </mxGeometry>
        </mxCell>
        <mxCell id="0v3SI8ZKZs6dKQrGf3tf-24" value="&lt;b&gt;chatter_id&lt;/b&gt;" style="ellipse;whiteSpace=wrap;html=1;aspect=fixed;" vertex="1" parent="1">
          <mxGeometry x="730" y="50" width="80" height="80" as="geometry" />
        </mxCell>
        <mxCell id="0v3SI8ZKZs6dKQrGf3tf-25" value="" style="endArrow=none;html=1;rounded=0;exitX=0.5;exitY=0;exitDx=0;exitDy=0;" edge="1" parent="1" source="0v3SI8ZKZs6dKQrGf3tf-26" target="0v3SI8ZKZs6dKQrGf3tf-39">
          <mxGeometry width="50" height="50" relative="1" as="geometry">
            <mxPoint x="720" y="320" as="sourcePoint" />
            <mxPoint x="740" y="250" as="targetPoint" />
          </mxGeometry>
        </mxCell>
        <mxCell id="0v3SI8ZKZs6dKQrGf3tf-26" value="chatroom_id" style="ellipse;whiteSpace=wrap;html=1;aspect=fixed;" vertex="1" parent="1">
          <mxGeometry x="680" y="300" width="80" height="80" as="geometry" />
        </mxCell>
        <mxCell id="0v3SI8ZKZs6dKQrGf3tf-27" value="student_id" style="ellipse;whiteSpace=wrap;html=1;aspect=fixed;" vertex="1" parent="1">
          <mxGeometry x="780" y="300" width="80" height="80" as="geometry" />
        </mxCell>
        <mxCell id="0v3SI8ZKZs6dKQrGf3tf-28" value="" style="endArrow=none;html=1;rounded=0;entryX=1;entryY=1;entryDx=0;entryDy=0;" edge="1" parent="1" source="0v3SI8ZKZs6dKQrGf3tf-27" target="0v3SI8ZKZs6dKQrGf3tf-39">
          <mxGeometry width="50" height="50" relative="1" as="geometry">
            <mxPoint x="670" y="320" as="sourcePoint" />
            <mxPoint x="800" y="250" as="targetPoint" />
          </mxGeometry>
        </mxCell>
        <mxCell id="0v3SI8ZKZs6dKQrGf3tf-29" value="" style="endArrow=classic;html=1;rounded=0;exitX=1;exitY=0.5;exitDx=0;exitDy=0;" edge="1" parent="1" source="0v3SI8ZKZs6dKQrGf3tf-39">
          <mxGeometry width="50" height="50" relative="1" as="geometry">
            <mxPoint x="830" y="220" as="sourcePoint" />
            <mxPoint x="990" y="220" as="targetPoint" />
          </mxGeometry>
        </mxCell>
        <mxCell id="0v3SI8ZKZs6dKQrGf3tf-30" value="" style="endArrow=none;html=1;rounded=0;exitX=1;exitY=0.5;exitDx=0;exitDy=0;entryX=0;entryY=0.5;entryDx=0;entryDy=0;" edge="1" parent="1" source="0v3SI8ZKZs6dKQrGf3tf-1" target="0v3SI8ZKZs6dKQrGf3tf-39">
          <mxGeometry width="50" height="50" relative="1" as="geometry">
            <mxPoint x="670" y="320" as="sourcePoint" />
            <mxPoint x="710" y="220" as="targetPoint" />
          </mxGeometry>
        </mxCell>
        <mxCell id="0v3SI8ZKZs6dKQrGf3tf-32" value="Chatroom" style="rounded=0;whiteSpace=wrap;html=1;" vertex="1" parent="1">
          <mxGeometry x="990" y="190" width="120" height="60" as="geometry" />
        </mxCell>
        <mxCell id="0v3SI8ZKZs6dKQrGf3tf-33" value="" style="endArrow=none;html=1;rounded=0;entryX=0.5;entryY=0;entryDx=0;entryDy=0;" edge="1" parent="1" target="0v3SI8ZKZs6dKQrGf3tf-32">
          <mxGeometry width="50" height="50" relative="1" as="geometry">
            <mxPoint x="1050" y="120" as="sourcePoint" />
            <mxPoint x="860" y="270" as="targetPoint" />
          </mxGeometry>
        </mxCell>
        <mxCell id="0v3SI8ZKZs6dKQrGf3tf-34" value="&lt;b&gt;chatroom_id&lt;/b&gt;" style="ellipse;whiteSpace=wrap;html=1;aspect=fixed;" vertex="1" parent="1">
          <mxGeometry x="1010" y="40" width="80" height="80" as="geometry" />
        </mxCell>
        <mxCell id="0v3SI8ZKZs6dKQrGf3tf-35" value="" style="endArrow=none;html=1;rounded=0;" edge="1" parent="1" source="0v3SI8ZKZs6dKQrGf3tf-32" target="0v3SI8ZKZs6dKQrGf3tf-36">
          <mxGeometry width="50" height="50" relative="1" as="geometry">
            <mxPoint x="810" y="320" as="sourcePoint" />
            <mxPoint x="1050" y="320" as="targetPoint" />
          </mxGeometry>
        </mxCell>
        <mxCell id="0v3SI8ZKZs6dKQrGf3tf-36" value="name" style="ellipse;whiteSpace=wrap;html=1;aspect=fixed;" vertex="1" parent="1">
          <mxGeometry x="1010" y="300" width="80" height="80" as="geometry" />
        </mxCell>
        <mxCell id="0v3SI8ZKZs6dKQrGf3tf-38" value="" style="endArrow=classic;html=1;rounded=0;exitX=1;exitY=0.5;exitDx=0;exitDy=0;" edge="1" parent="1" source="0v3SI8ZKZs6dKQrGf3tf-32" target="0v3SI8ZKZs6dKQrGf3tf-40">
          <mxGeometry width="50" height="50" relative="1" as="geometry">
            <mxPoint x="950" y="360" as="sourcePoint" />
            <mxPoint x="1250" y="220" as="targetPoint" />
          </mxGeometry>
        </mxCell>
        <mxCell id="0v3SI8ZKZs6dKQrGf3tf-39" value="&lt;font style=&quot;font-size: 14px;&quot;&gt;chatter&lt;/font&gt;" style="rhombus;whiteSpace=wrap;html=1;" vertex="1" parent="1">
          <mxGeometry x="730" y="180" width="80" height="80" as="geometry" />
        </mxCell>
        <mxCell id="0v3SI8ZKZs6dKQrGf3tf-40" value="Message" style="rounded=0;whiteSpace=wrap;html=1;fontSize=14;" vertex="1" parent="1">
          <mxGeometry x="1190" y="190" width="120" height="60" as="geometry" />
        </mxCell>
        <mxCell id="0v3SI8ZKZs6dKQrGf3tf-41" value="" style="endArrow=none;html=1;rounded=0;fontSize=14;entryX=0.5;entryY=0;entryDx=0;entryDy=0;" edge="1" parent="1" target="0v3SI8ZKZs6dKQrGf3tf-40">
          <mxGeometry width="50" height="50" relative="1" as="geometry">
            <mxPoint x="1250" y="120" as="sourcePoint" />
            <mxPoint x="1070" y="270" as="targetPoint" />
          </mxGeometry>
        </mxCell>
        <mxCell id="0v3SI8ZKZs6dKQrGf3tf-42" value="&lt;b&gt;&lt;font style=&quot;font-size: 12px;&quot;&gt;message_id&lt;/font&gt;&lt;/b&gt;" style="ellipse;whiteSpace=wrap;html=1;aspect=fixed;fontSize=14;" vertex="1" parent="1">
          <mxGeometry x="1210" y="40" width="80" height="80" as="geometry" />
        </mxCell>
        <mxCell id="0v3SI8ZKZs6dKQrGf3tf-43" value="" style="endArrow=none;html=1;rounded=0;fontSize=12;entryX=0;entryY=1;entryDx=0;entryDy=0;" edge="1" parent="1" target="0v3SI8ZKZs6dKQrGf3tf-40">
          <mxGeometry width="50" height="50" relative="1" as="geometry">
            <mxPoint x="1160" y="330" as="sourcePoint" />
            <mxPoint x="1070" y="270" as="targetPoint" />
          </mxGeometry>
        </mxCell>
        <mxCell id="0v3SI8ZKZs6dKQrGf3tf-44" value="chatroom_id" style="ellipse;whiteSpace=wrap;html=1;aspect=fixed;fontSize=12;" vertex="1" parent="1">
          <mxGeometry x="1130" y="305" width="80" height="80" as="geometry" />
        </mxCell>
        <mxCell id="0v3SI8ZKZs6dKQrGf3tf-45" value="" style="endArrow=none;html=1;rounded=0;fontSize=12;entryX=0.5;entryY=1;entryDx=0;entryDy=0;" edge="1" parent="1" target="0v3SI8ZKZs6dKQrGf3tf-40">
          <mxGeometry width="50" height="50" relative="1" as="geometry">
            <mxPoint x="1250" y="320" as="sourcePoint" />
            <mxPoint x="1060" y="260" as="targetPoint" />
          </mxGeometry>
        </mxCell>
        <mxCell id="0v3SI8ZKZs6dKQrGf3tf-46" value="chatter_id" style="ellipse;whiteSpace=wrap;html=1;aspect=fixed;fontSize=12;" vertex="1" parent="1">
          <mxGeometry x="1220" y="305" width="80" height="80" as="geometry" />
        </mxCell>
        <mxCell id="0v3SI8ZKZs6dKQrGf3tf-47" value="" style="endArrow=none;html=1;rounded=0;fontSize=12;entryX=1;entryY=1;entryDx=0;entryDy=0;" edge="1" parent="1" target="0v3SI8ZKZs6dKQrGf3tf-40">
          <mxGeometry width="50" height="50" relative="1" as="geometry">
            <mxPoint x="1350" y="310" as="sourcePoint" />
            <mxPoint x="1070" y="270" as="targetPoint" />
          </mxGeometry>
        </mxCell>
        <mxCell id="0v3SI8ZKZs6dKQrGf3tf-48" value="chatter" style="ellipse;whiteSpace=wrap;html=1;aspect=fixed;fontSize=12;" vertex="1" parent="1">
          <mxGeometry x="1310" y="305" width="80" height="80" as="geometry" />
        </mxCell>
        <mxCell id="0v3SI8ZKZs6dKQrGf3tf-49" value="" style="endArrow=none;html=1;rounded=0;fontSize=12;exitX=0;exitY=0.75;exitDx=0;exitDy=0;" edge="1" parent="1" source="0v3SI8ZKZs6dKQrGf3tf-1">
          <mxGeometry width="50" height="50" relative="1" as="geometry">
            <mxPoint x="340" y="230" as="sourcePoint" />
            <mxPoint x="-50" y="420" as="targetPoint" />
            <Array as="points">
              <mxPoint x="200" y="235" />
              <mxPoint x="200" y="420" />
            </Array>
          </mxGeometry>
        </mxCell>
        <mxCell id="0v3SI8ZKZs6dKQrGf3tf-51" value="Rank" style="rounded=0;whiteSpace=wrap;html=1;fontSize=12;" vertex="1" parent="1">
          <mxGeometry x="-250" y="385" width="120" height="60" as="geometry" />
        </mxCell>
        <mxCell id="0v3SI8ZKZs6dKQrGf3tf-52" value="" style="endArrow=none;html=1;rounded=0;fontSize=12;entryX=0;entryY=1;entryDx=0;entryDy=0;exitX=0.62;exitY=0.028;exitDx=0;exitDy=0;exitPerimeter=0;" edge="1" parent="1" source="0v3SI8ZKZs6dKQrGf3tf-53" target="0v3SI8ZKZs6dKQrGf3tf-51">
          <mxGeometry width="50" height="50" relative="1" as="geometry">
            <mxPoint x="-300" y="500" as="sourcePoint" />
            <mxPoint x="-290" y="460" as="targetPoint" />
          </mxGeometry>
        </mxCell>
        <mxCell id="0v3SI8ZKZs6dKQrGf3tf-53" value="&lt;b&gt;rank_id&lt;/b&gt;" style="ellipse;whiteSpace=wrap;html=1;aspect=fixed;fontSize=12;" vertex="1" parent="1">
          <mxGeometry x="-370" y="520" width="80" height="80" as="geometry" />
        </mxCell>
        <mxCell id="0v3SI8ZKZs6dKQrGf3tf-54" value="" style="endArrow=none;html=1;rounded=0;fontSize=12;entryX=0.25;entryY=1;entryDx=0;entryDy=0;exitX=0.5;exitY=0;exitDx=0;exitDy=0;" edge="1" parent="1" source="0v3SI8ZKZs6dKQrGf3tf-55" target="0v3SI8ZKZs6dKQrGf3tf-51">
          <mxGeometry width="50" height="50" relative="1" as="geometry">
            <mxPoint x="-220" y="500" as="sourcePoint" />
            <mxPoint x="-50" y="390" as="targetPoint" />
          </mxGeometry>
        </mxCell>
        <mxCell id="0v3SI8ZKZs6dKQrGf3tf-55" value="student_id" style="ellipse;whiteSpace=wrap;html=1;aspect=fixed;fontSize=12;" vertex="1" parent="1">
          <mxGeometry x="-270" y="520" width="80" height="80" as="geometry" />
        </mxCell>
        <mxCell id="0v3SI8ZKZs6dKQrGf3tf-56" value="" style="endArrow=none;html=1;rounded=0;fontSize=12;entryX=0.75;entryY=1;entryDx=0;entryDy=0;exitX=0.5;exitY=0;exitDx=0;exitDy=0;" edge="1" parent="1" source="0v3SI8ZKZs6dKQrGf3tf-57" target="0v3SI8ZKZs6dKQrGf3tf-51">
          <mxGeometry width="50" height="50" relative="1" as="geometry">
            <mxPoint x="-160" y="510" as="sourcePoint" />
            <mxPoint x="-50" y="390" as="targetPoint" />
          </mxGeometry>
        </mxCell>
        <mxCell id="0v3SI8ZKZs6dKQrGf3tf-57" value="subject_id" style="ellipse;whiteSpace=wrap;html=1;aspect=fixed;fontSize=12;" vertex="1" parent="1">
          <mxGeometry x="-180" y="520" width="80" height="80" as="geometry" />
        </mxCell>
        <mxCell id="0v3SI8ZKZs6dKQrGf3tf-58" value="" style="endArrow=none;html=1;rounded=0;fontSize=12;exitX=1;exitY=1;exitDx=0;exitDy=0;" edge="1" parent="1" source="0v3SI8ZKZs6dKQrGf3tf-51" target="0v3SI8ZKZs6dKQrGf3tf-59">
          <mxGeometry width="50" height="50" relative="1" as="geometry">
            <mxPoint x="-100" y="440" as="sourcePoint" />
            <mxPoint x="-70" y="530" as="targetPoint" />
          </mxGeometry>
        </mxCell>
        <mxCell id="0v3SI8ZKZs6dKQrGf3tf-59" value="point" style="ellipse;whiteSpace=wrap;html=1;aspect=fixed;fontSize=12;" vertex="1" parent="1">
          <mxGeometry x="-90" y="520" width="80" height="80" as="geometry" />
        </mxCell>
        <mxCell id="0v3SI8ZKZs6dKQrGf3tf-60" value="" style="endArrow=none;html=1;rounded=0;fontSize=12;exitX=0;exitY=0.5;exitDx=0;exitDy=0;" edge="1" parent="1" source="0v3SI8ZKZs6dKQrGf3tf-51">
          <mxGeometry width="50" height="50" relative="1" as="geometry">
            <mxPoint x="-100" y="440" as="sourcePoint" />
            <mxPoint x="-420" y="415" as="targetPoint" />
          </mxGeometry>
        </mxCell>
        <mxCell id="0v3SI8ZKZs6dKQrGf3tf-62" value="" style="endArrow=classic;html=1;rounded=0;fontSize=12;" edge="1" parent="1">
          <mxGeometry width="50" height="50" relative="1" as="geometry">
            <mxPoint x="-50" y="420" as="sourcePoint" />
            <mxPoint x="-130" y="420" as="targetPoint" />
          </mxGeometry>
        </mxCell>
        <mxCell id="0v3SI8ZKZs6dKQrGf3tf-63" value="Subject" style="rounded=0;whiteSpace=wrap;html=1;fontSize=12;" vertex="1" parent="1">
          <mxGeometry x="-540" y="380" width="120" height="60" as="geometry" />
        </mxCell>
        <mxCell id="0v3SI8ZKZs6dKQrGf3tf-64" value="" style="endArrow=none;html=1;rounded=0;fontSize=12;exitX=0.25;exitY=1;exitDx=0;exitDy=0;" edge="1" parent="1" source="0v3SI8ZKZs6dKQrGf3tf-63" target="0v3SI8ZKZs6dKQrGf3tf-65">
          <mxGeometry width="50" height="50" relative="1" as="geometry">
            <mxPoint x="-230" y="410" as="sourcePoint" />
            <mxPoint x="-550" y="470" as="targetPoint" />
          </mxGeometry>
        </mxCell>
        <mxCell id="0v3SI8ZKZs6dKQrGf3tf-65" value="&lt;b&gt;subject_id&lt;/b&gt;" style="ellipse;whiteSpace=wrap;html=1;aspect=fixed;fontSize=12;" vertex="1" parent="1">
          <mxGeometry x="-580" y="470" width="80" height="80" as="geometry" />
        </mxCell>
        <mxCell id="0v3SI8ZKZs6dKQrGf3tf-66" value="" style="endArrow=none;html=1;rounded=0;fontSize=12;exitX=0.75;exitY=1;exitDx=0;exitDy=0;" edge="1" parent="1" source="0v3SI8ZKZs6dKQrGf3tf-63" target="0v3SI8ZKZs6dKQrGf3tf-67">
          <mxGeometry width="50" height="50" relative="1" as="geometry">
            <mxPoint x="-230" y="410" as="sourcePoint" />
            <mxPoint x="-440" y="480" as="targetPoint" />
          </mxGeometry>
        </mxCell>
        <mxCell id="0v3SI8ZKZs6dKQrGf3tf-67" value="name" style="ellipse;whiteSpace=wrap;html=1;aspect=fixed;fontSize=12;" vertex="1" parent="1">
          <mxGeometry x="-490" y="470" width="80" height="80" as="geometry" />
        </mxCell>
        <mxCell id="0v3SI8ZKZs6dKQrGf3tf-68" value="" style="endArrow=none;html=1;rounded=0;fontSize=12;exitX=0;exitY=0.5;exitDx=0;exitDy=0;" edge="1" parent="1" source="0v3SI8ZKZs6dKQrGf3tf-63">
          <mxGeometry width="50" height="50" relative="1" as="geometry">
            <mxPoint x="-230" y="410" as="sourcePoint" />
            <mxPoint x="-700" y="410" as="targetPoint" />
          </mxGeometry>
        </mxCell>
        <mxCell id="0v3SI8ZKZs6dKQrGf3tf-69" value="Topic" style="rounded=0;whiteSpace=wrap;html=1;fontSize=12;" vertex="1" parent="1">
          <mxGeometry x="-820" y="380" width="120" height="60" as="geometry" />
        </mxCell>
        <mxCell id="0v3SI8ZKZs6dKQrGf3tf-70" value="" style="endArrow=none;html=1;rounded=0;fontSize=12;exitX=0.25;exitY=1;exitDx=0;exitDy=0;" edge="1" parent="1" source="0v3SI8ZKZs6dKQrGf3tf-69" target="0v3SI8ZKZs6dKQrGf3tf-71">
          <mxGeometry width="50" height="50" relative="1" as="geometry">
            <mxPoint x="-610" y="410" as="sourcePoint" />
            <mxPoint x="-820" y="490" as="targetPoint" />
          </mxGeometry>
        </mxCell>
        <mxCell id="0v3SI8ZKZs6dKQrGf3tf-71" value="&lt;b&gt;topic_id&lt;/b&gt;" style="ellipse;whiteSpace=wrap;html=1;aspect=fixed;fontSize=12;" vertex="1" parent="1">
          <mxGeometry x="-890" y="470" width="80" height="80" as="geometry" />
        </mxCell>
        <mxCell id="0v3SI8ZKZs6dKQrGf3tf-72" value="" style="endArrow=none;html=1;rounded=0;fontSize=12;exitX=0.5;exitY=1;exitDx=0;exitDy=0;" edge="1" parent="1" source="0v3SI8ZKZs6dKQrGf3tf-69" target="0v3SI8ZKZs6dKQrGf3tf-73">
          <mxGeometry width="50" height="50" relative="1" as="geometry">
            <mxPoint x="-610" y="410" as="sourcePoint" />
            <mxPoint x="-760" y="480" as="targetPoint" />
          </mxGeometry>
        </mxCell>
        <mxCell id="0v3SI8ZKZs6dKQrGf3tf-73" value="subject_id" style="ellipse;whiteSpace=wrap;html=1;aspect=fixed;fontSize=12;" vertex="1" parent="1">
          <mxGeometry x="-800" y="470" width="80" height="80" as="geometry" />
        </mxCell>
        <mxCell id="0v3SI8ZKZs6dKQrGf3tf-74" value="" style="endArrow=none;html=1;rounded=0;fontSize=12;exitX=0.75;exitY=1;exitDx=0;exitDy=0;" edge="1" parent="1" source="0v3SI8ZKZs6dKQrGf3tf-69" target="0v3SI8ZKZs6dKQrGf3tf-75">
          <mxGeometry width="50" height="50" relative="1" as="geometry">
            <mxPoint x="-610" y="410" as="sourcePoint" />
            <mxPoint x="-690" y="490" as="targetPoint" />
          </mxGeometry>
        </mxCell>
        <mxCell id="0v3SI8ZKZs6dKQrGf3tf-75" value="name" style="ellipse;whiteSpace=wrap;html=1;aspect=fixed;fontSize=12;" vertex="1" parent="1">
          <mxGeometry x="-710" y="470" width="80" height="80" as="geometry" />
        </mxCell>
      </root>
    </mxGraphModel>
  </diagram>
</mxfile>
